<svg width="14" height="15" viewBox="0 0 14 15" fill="none" xmlns="http://www.w3.org/2000/svg">
<path fill-rule="evenodd" clip-rule="evenodd" d="M5.10433 1.66699H5.68766C7.33733 1.66699 8.16275 1.66699 8.67491 2.17974C9.18766 2.69191 9.18766 3.51733 9.18766 5.16699V9.97949H10.1041C10.8064 9.97949 11.3752 10.5482 11.3752 11.2506V11.292C11.3752 11.408 11.4213 11.5193 11.5033 11.6014C11.5854 11.6834 11.6966 11.7295 11.8127 11.7295C11.9287 11.7295 12.04 11.6834 12.122 11.6014C12.2041 11.5193 12.2502 11.408 12.2502 11.292V8.52116L11.5362 8.28316C11.3619 8.22512 11.2103 8.11372 11.1029 7.96473C10.9955 7.81575 10.9377 7.63674 10.9377 7.45308V6.04199C10.9377 5.80993 11.0299 5.58737 11.1939 5.42327C11.358 5.25918 11.5806 5.16699 11.8127 5.16699H12.2502V4.94649C12.2502 4.83858 12.2502 4.80183 12.2484 4.76799C12.229 4.42095 12.0727 4.09578 11.8138 3.86383C11.7687 3.82493 11.7226 3.7872 11.6756 3.75066L10.9563 3.17549C10.9107 3.13991 10.8725 3.09561 10.8441 3.04518C10.8157 2.99474 10.7976 2.93916 10.7908 2.88167C10.784 2.82418 10.7887 2.76591 10.8046 2.71024C10.8205 2.65458 10.8473 2.60262 10.8834 2.55738C10.9195 2.51215 10.9643 2.47453 11.015 2.44671C11.0658 2.4189 11.1216 2.40143 11.1792 2.39534C11.2367 2.38924 11.2949 2.39463 11.3504 2.41119C11.4059 2.42775 11.4575 2.45516 11.5023 2.49183L12.2315 3.07516C12.3027 3.13233 12.3517 3.17141 12.3977 3.21283C12.8289 3.59929 13.0892 4.14092 13.1217 4.71899C13.1252 4.78024 13.1252 4.84324 13.1252 4.93483V11.292C13.1252 11.6401 12.9869 11.9739 12.7407 12.2201C12.4946 12.4662 12.1608 12.6045 11.8127 12.6045C11.4646 12.6045 11.1307 12.4662 10.8846 12.2201C10.6384 11.9739 10.5002 11.6401 10.5002 11.292V11.2506C10.5 11.1456 10.4582 11.0449 10.384 10.9707C10.3097 10.8964 10.2091 10.8546 10.1041 10.8545H9.18766V12.8962H9.84275C9.95878 12.8962 10.0701 12.9423 10.1521 13.0243C10.2342 13.1063 10.2802 13.2176 10.2802 13.3337C10.2802 13.4497 10.2342 13.561 10.1521 13.643C10.0701 13.7251 9.95878 13.7712 9.84275 13.7712H1.021C0.904964 13.7712 0.793684 13.7251 0.711637 13.643C0.62959 13.561 0.583496 13.4497 0.583496 13.3337C0.583496 13.2176 0.62959 13.1063 0.711637 13.0243C0.793684 12.9423 0.904964 12.8962 1.021 12.8962H1.60433V5.16699C1.60433 3.51733 1.60433 2.69191 2.11708 2.17974C2.62925 1.66699 3.45466 1.66699 5.10433 1.66699ZM4.0835 9.97949C3.96746 9.97949 3.85618 10.0256 3.77414 10.1076C3.69209 10.1897 3.646 10.301 3.646 10.417C3.646 10.533 3.69209 10.6443 3.77414 10.7264C3.85618 10.8084 3.96746 10.8545 4.0835 10.8545H7.00016C7.1162 10.8545 7.22748 10.8084 7.30952 10.7264C7.39157 10.6443 7.43766 10.533 7.43766 10.417C7.43766 10.301 7.39157 10.1897 7.30952 10.1076C7.22748 10.0256 7.1162 9.97949 7.00016 9.97949H4.0835ZM6.41683 4.00033H4.66683C4.11675 4.00033 3.842 4.00033 3.67108 4.17124C3.50016 4.34216 3.50016 4.61691 3.50016 5.16699C3.50016 5.71708 3.50016 5.99183 3.67108 6.16274C3.842 6.33366 4.11675 6.33366 4.66683 6.33366H6.41683C6.96691 6.33366 7.24166 6.33366 7.41258 6.16274C7.5835 5.99183 7.5835 5.71708 7.5835 5.16699C7.5835 4.61691 7.5835 4.34216 7.41258 4.17124C7.24166 4.00033 6.96691 4.00033 6.41683 4.00033Z" fill="white" fill-opacity="0.5"/>
</svg>
