<svg width="42" height="42" viewBox="0 0 42 42" fill="none" xmlns="http://www.w3.org/2000/svg">
<rect width="42" height="42" rx="21" fill="white"/>
<path d="M26.5812 16.5328V16.3328H26.3812H24.4548C24.3071 16.3328 24.1936 16.2423 24.1422 16.1093C24.0905 15.9756 24.1094 15.8155 24.2231 15.6957L27.2258 12.5334C27.3507 12.4018 27.5599 12.4015 27.6857 12.5409L27.6856 12.541L27.6891 12.5447L30.6919 15.7071L30.6919 15.7071L30.6941 15.7094C30.9272 15.9472 30.7492 16.3328 30.4602 16.3328H28.5337H28.3337V16.5328V24.4671C28.3337 27.0137 26.2605 29.0267 23.8293 28.7793L23.8292 28.7793C21.711 28.5648 20.1238 26.5602 20.1238 24.2744V16.5328C20.1238 15.0525 18.8533 13.841 17.3711 14.1028C16.1872 14.3047 15.4188 15.463 15.4188 16.6688V24.4671V24.6671H15.6188L17.5452 24.6671L17.5465 24.6671C17.6109 24.6667 17.6748 24.6863 17.7303 24.7248C17.786 24.7634 17.8311 24.8195 17.8584 24.8874C17.8857 24.9553 17.8934 25.0308 17.8803 25.1039C17.8672 25.1767 17.8342 25.2425 17.7869 25.2936C17.7867 25.2938 17.7865 25.294 17.7863 25.2943L14.7849 28.4552C14.6485 28.5988 14.4473 28.5988 14.3109 28.4552L11.3081 25.2928L11.3081 25.2928L11.3059 25.2905C11.0728 25.0527 11.2508 24.6671 11.5398 24.6671H13.4663H13.6663V24.4671V16.5328C13.6663 16.5328 13.6663 16.5328 13.6663 16.5328C13.6664 15.9266 13.787 15.3275 14.02 14.774C14.253 14.2204 14.5931 13.7251 15.0179 13.3196C15.4426 12.9141 15.9425 12.6072 16.4853 12.4182C17.028 12.2291 17.602 12.1619 18.1705 12.2205L18.1708 12.2206C20.289 12.4351 21.8762 14.4396 21.8762 16.7255V24.4671C21.8762 25.9474 23.1467 27.1589 24.6289 26.8971C25.8128 26.6952 26.5812 25.5368 26.5812 24.3311V16.5328Z" fill="#0C0C0C" stroke="white" stroke-width="0.4"/>
</svg>
