<svg width="15" height="15" viewBox="0 0 15 15" fill="none" xmlns="http://www.w3.org/2000/svg">
<path fill-rule="evenodd" clip-rule="evenodd" d="M13.5938 7.5C13.5938 9.11616 12.9517 10.6661 11.8089 11.8089C10.6661 12.9517 9.11616 13.5938 7.5 13.5938C5.88384 13.5938 4.33387 12.9517 3.19107 11.8089C2.04827 10.6661 1.40625 9.11616 1.40625 7.5C1.40625 5.88384 2.04827 4.33387 3.19107 3.19107C4.33387 2.04827 5.88384 1.40625 7.5 1.40625C9.11616 1.40625 10.6661 2.04827 11.8089 3.19107C12.9517 4.33387 13.5938 5.88384 13.5938 7.5ZM15 7.5C15 9.48912 14.2098 11.3968 12.8033 12.8033C11.3968 14.2098 9.48912 15 7.5 15C5.51088 15 3.60322 14.2098 2.1967 12.8033C0.790176 11.3968 0 9.48912 0 7.5C0 5.51088 0.790176 3.60322 2.1967 2.1967C3.60322 0.790176 5.51088 0 7.5 0C9.48912 0 11.3968 0.790176 12.8033 2.1967C14.2098 3.60322 15 5.51088 15 7.5ZM5.85938 9.84375C5.67289 9.84375 5.49405 9.91783 5.36219 10.0497C5.23033 10.1816 5.15625 10.3604 5.15625 10.5469C5.15625 10.7334 5.23033 10.9122 5.36219 11.0441C5.49405 11.1759 5.67289 11.25 5.85938 11.25H9.14062C9.32711 11.25 9.50595 11.1759 9.63781 11.0441C9.76967 10.9122 9.84375 10.7334 9.84375 10.5469C9.84375 10.3604 9.76967 10.1816 9.63781 10.0497C9.50595 9.91783 9.32711 9.84375 9.14062 9.84375H8.20312V6.5625H6.5625C6.37602 6.5625 6.19718 6.63658 6.06532 6.76844C5.93345 6.9003 5.85938 7.07914 5.85938 7.26562C5.85938 7.45211 5.93345 7.63095 6.06532 7.76281C6.19718 7.89467 6.37602 7.96875 6.5625 7.96875H6.79688V9.84375H5.85938ZM7.5 5.625C7.74864 5.625 7.9871 5.52623 8.16291 5.35041C8.33873 5.1746 8.4375 4.93614 8.4375 4.6875C8.4375 4.43886 8.33873 4.2004 8.16291 4.02459C7.9871 3.84877 7.74864 3.75 7.5 3.75C7.25136 3.75 7.0129 3.84877 6.83709 4.02459C6.66127 4.2004 6.5625 4.43886 6.5625 4.6875C6.5625 4.93614 6.66127 5.1746 6.83709 5.35041C7.0129 5.52623 7.25136 5.625 7.5 5.625Z" fill="#292929"/>
</svg>
