<svg width="37" height="37" viewBox="0 0 37 37" fill="none" xmlns="http://www.w3.org/2000/svg">
<rect width="37" height="37" rx="8" fill="white"/>
<path d="M17.3676 15.2331C17.5351 15.0663 17.7833 14.8809 17.9321 14.8129H17.9259C18.081 14.7449 18.323 14.6893 18.5029 14.6893C18.6828 14.6893 18.9185 14.7387 19.0612 14.8129C19.1977 14.8747 19.4582 15.0848 19.6319 15.2702C19.8118 15.4618 20.029 15.7646 20.1158 15.9438C20.1964 16.1168 20.3081 16.4629 20.3639 16.6977C20.4136 16.9326 20.457 17.4455 20.457 17.8286C20.457 18.5022 20.4632 18.5269 20.6245 18.6938C20.7238 18.7865 21.0153 18.9842 21.2759 19.1264C21.5426 19.2685 21.7597 19.4045 21.7597 19.4354C21.7597 19.4601 21.6295 19.559 21.462 19.664C21.3007 19.7629 20.9843 20.0286 20.761 20.2511C20.5376 20.4736 20.2399 20.8196 20.1034 21.0236C19.9669 21.2275 19.725 21.6477 19.5699 21.9505C19.421 22.2533 19.117 23.0134 18.8999 23.6376C18.6828 24.2556 18.4843 24.7438 18.4657 24.7191C18.4408 24.6882 18.292 24.2679 18.1307 23.7736C17.9694 23.2792 17.7212 22.6118 17.5785 22.2904C17.4359 21.9691 17.1629 21.4685 16.9706 21.1781C16.7845 20.8876 16.4061 20.4427 16.1393 20.1893C15.8664 19.9359 15.5438 19.6702 15.4135 19.6022C15.2894 19.5342 15.184 19.4663 15.184 19.4477C15.184 19.4292 15.4507 19.2623 15.7795 19.0769C16.1083 18.8915 16.3999 18.6938 16.4247 18.6443C16.4495 18.5949 16.4867 18.1932 16.5053 17.7483C16.5239 17.3033 16.586 16.7781 16.6418 16.5741C16.6976 16.3702 16.8155 16.0488 16.9086 15.8635C17.0016 15.6781 17.2063 15.3938 17.3676 15.2331Z" fill="#121212"/>
<path d="M22.4421 13.8921C22.6655 13.7376 22.9694 13.5213 23.1183 13.4101C23.323 13.2556 23.4099 13.2247 23.4471 13.2803C23.4719 13.3236 23.5216 13.4842 23.5588 13.6387C23.6084 13.8365 23.6084 13.991 23.565 14.1764C23.5278 14.3247 23.4037 14.5472 23.292 14.6708C23.1742 14.8005 22.9322 14.9736 22.7461 15.0539C22.56 15.1342 22.2746 15.2146 22.1009 15.2269C21.9334 15.2455 21.6419 15.2269 21.4682 15.1899C21.2883 15.1528 21.0339 15.0786 20.6741 14.9303L21.3565 14.5472C21.7349 14.3371 22.2188 14.0404 22.4421 13.8921Z" fill="#121212"/>
<path d="M13.416 13.8921C13.4222 13.6635 13.4594 13.4224 13.5028 13.3421L13.5897 13.2L13.813 13.373C13.9371 13.4657 14.2472 13.6882 14.5016 13.8612C14.7559 14.0404 15.2708 14.3494 16.3316 14.9365L16.0835 15.0354C15.947 15.091 15.6678 15.1651 15.4631 15.2022C15.1902 15.2517 14.9855 15.2517 14.6877 15.196C14.4644 15.1528 14.1666 15.0539 14.0177 14.9674C13.875 14.8809 13.6827 14.6955 13.5835 14.5533C13.4408 14.337 13.416 14.232 13.416 13.8921Z" fill="#121212"/>
<path d="M10.3204 12.3286C10.4072 12.0443 10.6119 11.5438 10.767 11.2101C10.9221 10.8764 11.071 10.6168 11.0896 10.623C11.1144 10.6354 11.3192 10.8764 11.5549 11.1668C11.7844 11.4573 12.0884 11.8095 12.2311 11.9578C12.4792 12.2112 12.4854 12.2236 12.3986 12.4213C12.3551 12.5264 12.2435 12.8168 12.1628 13.0516C12.0326 13.4163 12.0077 13.5707 12.0326 14.0404C12.0512 14.5101 12.0822 14.6584 12.2497 14.9983C12.3738 15.264 12.5661 15.5174 12.808 15.7398C13.0065 15.9252 13.3229 16.1539 13.509 16.2466C13.6951 16.3393 14.0177 16.4567 14.2224 16.5123C14.4271 16.5618 14.7311 16.605 15.215 16.605L15.1716 16.9264C15.1467 17.1056 15.1219 17.396 15.1219 17.8719L13.782 18.6443C13.0437 19.0707 12.4296 19.4292 12.4234 19.4477C12.411 19.4662 12.9259 19.7691 13.5586 20.1275C14.1976 20.4859 14.8552 20.8999 15.0227 21.0544C15.1902 21.2089 15.4445 21.4994 15.5872 21.7033C15.7361 21.9073 15.9656 22.2842 16.0959 22.5376C16.2324 22.791 16.4557 23.2668 16.5922 23.5881C16.7287 23.9095 16.9768 24.5522 17.1319 25.0095C17.2932 25.4668 17.6468 26.6101 17.9259 27.5432C18.1989 28.4763 18.447 29.2735 18.4719 29.3044C18.5029 29.3415 18.5525 29.2797 18.5897 29.1499C18.6207 29.0325 18.8441 28.2662 19.086 27.4505C19.328 26.6348 19.6505 25.5904 19.8056 25.1331C19.9669 24.6758 20.1902 24.064 20.3143 23.7735C20.4322 23.4831 20.6803 22.9578 20.8664 22.5994C21.0525 22.241 21.3503 21.7589 21.5302 21.5241C21.7039 21.2831 21.9707 21.005 22.1133 20.9061C22.2622 20.8011 22.8826 20.4365 23.4967 20.0966C24.4707 19.5528 24.5948 19.4662 24.5017 19.3983C24.4459 19.355 23.8379 19.0028 21.9148 17.9028L21.8652 17.3651C21.8342 17.0623 21.8032 16.7719 21.7846 16.7162C21.766 16.6236 21.8094 16.605 22.0823 16.605C22.2622 16.605 22.5786 16.5618 22.7833 16.5061C22.9881 16.4505 23.3106 16.3269 23.4967 16.2342C23.6829 16.1415 23.9868 15.9252 24.1729 15.7646C24.4025 15.5545 24.57 15.3196 24.7313 15.0045C24.9422 14.5595 24.9546 14.5101 24.9546 13.923C24.9484 13.3545 24.9298 13.2556 24.5079 12.2483L24.7809 11.9393C24.936 11.7724 25.2461 11.3955 25.8851 10.5983L25.9906 10.7404C26.0526 10.8208 26.2139 11.1668 26.3566 11.5067C26.4993 11.8466 26.6978 12.446 26.9894 13.546L27.0328 16.4196C27.0638 18.0016 27.1134 19.5837 27.1506 19.9421C27.1879 20.3005 27.2809 20.9123 27.3492 21.3016C27.4174 21.691 27.5415 22.2904 27.6283 22.6303C27.7152 22.9702 27.9013 23.6129 28.0502 24.0516C28.199 24.4904 28.4782 25.2011 28.6643 25.6275C28.8566 26.0539 29.0117 26.4061 28.9993 26.4123C28.9931 26.4247 28.3603 25.9303 27.5911 25.3123C26.8219 24.7005 26.1767 24.2247 26.1581 24.2494C26.1395 24.2741 25.6928 24.9971 25.1717 25.8438C24.6506 26.6966 24.204 27.4196 24.1729 27.4505C24.1419 27.4876 24.0178 27.4134 23.8503 27.2651C23.6953 27.1292 23.2052 26.678 21.9459 25.5039L20.9657 27.0983C20.426 27.9696 19.6505 29.2241 19.2411 29.8791C18.6766 30.7876 18.4843 31.0533 18.4346 30.9915C18.3974 30.9482 17.6716 29.7865 16.8279 28.4084L16.7757 28.3238C15.9475 26.9807 15.2233 25.8065 15.0289 25.5039L13.9557 26.505C13.0313 27.3702 12.87 27.4999 12.8018 27.4196C12.7584 27.3702 12.2931 26.6348 11.772 25.782C11.2509 24.9353 10.8105 24.2308 10.7981 24.2247C10.7918 24.2123 10.1591 24.7067 9.39605 25.3123C8.63921 25.9241 8.01265 26.3999 8.00025 26.3814C7.99404 26.3567 8.10571 26.0724 8.2608 25.7511C8.40968 25.4297 8.63301 24.8859 8.76328 24.546C8.88736 24.2061 9.08587 23.6067 9.19753 23.2174C9.3092 22.828 9.45808 22.2286 9.53253 21.8887C9.60077 21.5488 9.70623 20.9494 9.76206 20.5601C9.8365 20.0348 9.87372 19.0831 9.91094 16.8831C9.94816 14.5719 9.97918 13.7994 10.0598 13.3792C10.1157 13.0764 10.2335 12.6067 10.3204 12.3286Z" fill="#121212"/>
<path d="M16.6418 6.16741C16.983 6.09943 17.3428 6.03146 17.4483 6.01292C17.5537 6.00056 18.1121 5.99438 18.689 6.00674C19.3776 6.0191 19.9049 6.06235 20.2089 6.13033C20.4632 6.18595 20.8975 6.30337 21.1704 6.38988C21.4434 6.4764 21.89 6.64943 22.163 6.77921C22.4359 6.90898 22.9136 7.18089 23.2176 7.38482C23.5216 7.58876 23.962 7.92246 24.1977 8.13258C24.4893 8.39831 24.663 8.50954 24.7871 8.50954C24.8801 8.50954 25.1345 8.42302 25.3578 8.31179C25.5935 8.19437 25.9409 7.941 26.1829 7.70617C26.4124 7.4837 26.6047 7.34775 26.5985 7.39718C26.5985 7.44662 26.4807 7.71235 26.3442 7.98426C26.2077 8.25617 25.9658 8.65786 25.8107 8.88033C25.6494 9.1028 25.395 9.43651 25.2399 9.6219C25.0849 9.80729 24.7375 10.1966 24.4583 10.4809C24.1853 10.759 23.7077 11.2101 23.4037 11.4696C23.0997 11.7354 22.5786 12.1432 22.256 12.3843C21.9334 12.6191 21.4992 12.9219 21.2945 13.0517C21.0898 13.1814 20.6989 13.4039 19.9297 13.8056L19.5265 13.5831C19.1356 13.3668 19.0984 13.3607 18.4967 13.3607C17.9135 13.3607 17.8453 13.373 17.4731 13.5646C17.256 13.6758 17.0512 13.7685 17.014 13.7685C16.9768 13.7685 16.7162 13.6387 16.4247 13.4781C16.1331 13.3174 15.6182 13.0022 15.277 12.7674C14.9358 12.5387 14.3651 12.1123 14.0053 11.8281C13.6455 11.5438 12.9755 10.9196 12.5164 10.4438C12.0574 9.97415 11.5239 9.36235 11.3254 9.09044C11.133 8.82471 10.8601 8.39213 10.7236 8.13876C10.5871 7.88539 10.4507 7.59494 10.4196 7.48988C10.37 7.32303 10.401 7.33539 10.7422 7.67527C10.9842 7.9101 11.2943 8.13258 11.5859 8.28089C11.8402 8.41067 12.1194 8.51572 12.2063 8.51572C12.3117 8.51572 12.5164 8.37977 12.8266 8.10168C13.081 7.87921 13.5152 7.5455 13.7882 7.36629C14.0611 7.18707 14.483 6.93988 14.7187 6.82247C14.9544 6.70505 15.3515 6.5382 15.5872 6.45168C15.8229 6.36516 16.3006 6.24157 16.6418 6.16741Z" fill="#121212"/>
</svg>
