<svg width="37" height="37" viewBox="0 0 37 37" fill="none" xmlns="http://www.w3.org/2000/svg">
<rect width="37" height="37" rx="8" fill="white"/>
<g clip-path="url(#clip0_0_76)">
<mask id="mask0_0_76" style="mask-type:alpha" maskUnits="userSpaceOnUse" x="10" y="10" width="17" height="18">
<mask id="mask1_0_76" style="mask-type:luminance" maskUnits="userSpaceOnUse" x="10" y="10" width="17" height="18">
<path d="M10 10.9061H26.6317V27.0966H10V10.9061Z" fill="white"/>
</mask>
<g mask="url(#mask1_0_76)">
<path d="M11.5918 23.6395C12.2883 24.591 13.1817 25.3871 14.2134 25.9756C15.2451 26.5642 16.3918 26.9319 17.5784 27.0547C16.9679 26.1521 16.0808 25.3223 14.9733 24.6904C13.8657 24.0579 12.6922 23.7134 11.5923 23.6395H11.5918Z" fill="url(#paint0_linear_0_76)"/>
<path d="M16.4616 22.1741C14.3273 20.9567 12.0174 20.6461 10.3647 21.1945C10.5244 21.7126 10.7346 22.214 10.9932 22.6922C12.429 22.6593 13.9966 23.0423 15.456 23.8746C16.9149 24.7069 18.0307 25.8554 18.7133 27.097C19.2645 27.0803 19.8126 27.011 20.3499 26.8911C20.0161 25.2098 18.5953 23.3924 16.4616 22.1741Z" fill="url(#paint1_linear_0_76)"/>
<path d="M26.6317 17.2305C26.3604 16.1465 25.8694 15.1273 25.1881 14.2339C24.5068 13.3404 23.6492 12.5909 22.6664 12.0302C21.6836 11.4695 20.5959 11.1091 19.4681 10.9705C18.3403 10.8318 17.1957 10.9178 16.1025 11.2233C17.9293 11.4429 19.9559 12.1163 21.9444 13.2507C23.9328 14.385 25.5334 15.7809 26.6322 17.2315L26.6317 17.2305Z" fill="url(#paint2_linear_0_76)"/>
<path d="M23.9747 21.2063C23.0397 19.6819 21.4386 18.2212 19.4655 17.0959C17.4925 15.9702 15.4087 15.3276 13.5985 15.2846C12.0062 15.2482 10.811 15.7025 10.3206 16.5323L10.3103 16.5465C10.2665 16.7023 10.2284 16.8581 10.1938 17.0145C10.879 16.7489 11.6723 16.6011 12.5553 16.5844C14.518 16.5485 16.7141 17.1647 18.7412 18.3214C20.7684 19.478 22.4029 21.0474 23.3426 22.7393C23.764 23.5013 24.0272 24.2521 24.1308 24.9691C24.2523 24.8628 24.3713 24.7525 24.4867 24.6382L24.495 24.622C24.9854 23.7917 24.7958 22.5466 23.9747 21.2063Z" fill="url(#paint3_linear_0_76)"/>
<path d="M17.9642 19.6326C14.9444 17.9093 11.6057 17.6396 10 18.8418C10.0031 19.2187 10.0325 19.5946 10.0876 19.967C10.5598 19.8264 11.0465 19.7378 11.5388 19.7029C13.333 19.5704 15.3107 20.0616 17.1055 21.0862C18.9003 22.1107 20.3149 23.5552 21.0866 25.1505C21.2998 25.5876 21.4626 26.0465 21.5713 26.5196C21.9288 26.382 22.2755 26.2211 22.6104 26.0374C22.8793 24.0713 20.9866 21.3569 17.9648 19.6326H17.9642Z" fill="url(#paint4_linear_0_76)"/>
<path d="M25.5285 18.6545C24.5832 17.1316 22.9682 15.6674 20.9812 14.534C18.9943 13.4012 16.9022 12.748 15.0863 12.6959C13.7016 12.6565 12.6291 12.9863 12.0737 13.6087C14.3816 13.2241 17.4272 13.8702 20.3785 15.554C23.3303 17.2384 25.41 19.5167 26.2131 21.6761C26.4882 20.8944 26.2492 19.8162 25.5285 18.6545Z" fill="url(#paint5_linear_0_76)"/>
</g>
</mask>
<g mask="url(#mask0_0_76)">
<rect x="9.19043" y="9.28625" width="18.619" height="18.619" fill="#222222"/>
</g>
</g>
<path fill-rule="evenodd" clip-rule="evenodd" d="M12.106 8.21345C9.14224 8.98033 6.95349 11.725 6.95349 15C6.95349 15.5523 6.51618 16 5.97674 16C5.4373 16 5 15.5523 5 15C5 10.025 8.93144 6 13.7907 6C14.1292 6 14.4436 6.17945 14.6216 6.47427C14.7995 6.76909 14.8157 7.13722 14.6643 7.44721L13.5482 9.73255C13.307 10.2265 12.7203 10.4267 12.2378 10.1798C11.7553 9.93277 11.5597 9.3321 11.801 8.83812L12.106 8.21345ZM32.0233 22C32.5627 22 33 22.4477 33 23C33 27.975 29.0686 32 24.2093 32C23.8708 32 23.5564 31.8205 23.3784 31.5257C23.2005 31.2309 23.1843 30.8628 23.3357 30.5528L24.4518 28.2675C24.693 27.7735 25.2797 27.5732 25.7622 27.8202C26.2447 28.0672 26.4403 28.6679 26.199 29.1619L25.894 29.7865C28.8578 29.0197 31.0465 26.275 31.0465 23C31.0465 22.4477 31.4838 22 32.0233 22Z" fill="#222222"/>
<defs>
<linearGradient id="paint0_linear_0_76" x1="21.0757" y1="14.1949" x2="13.6384" y2="27.2132" gradientUnits="userSpaceOnUse">
<stop stop-color="#C7F284"/>
<stop offset="1" stop-color="#00BEF0"/>
</linearGradient>
<linearGradient id="paint1_linear_0_76" x1="21.0758" y1="14.1952" x2="13.6384" y2="27.2135" gradientUnits="userSpaceOnUse">
<stop stop-color="#C7F284"/>
<stop offset="1" stop-color="#00BEF0"/>
</linearGradient>
<linearGradient id="paint2_linear_0_76" x1="21.0758" y1="14.1948" x2="13.6385" y2="27.213" gradientUnits="userSpaceOnUse">
<stop stop-color="#C7F284"/>
<stop offset="1" stop-color="#00BEF0"/>
</linearGradient>
<linearGradient id="paint3_linear_0_76" x1="21.0759" y1="14.1948" x2="13.6386" y2="27.2131" gradientUnits="userSpaceOnUse">
<stop stop-color="#C7F284"/>
<stop offset="1" stop-color="#00BEF0"/>
</linearGradient>
<linearGradient id="paint4_linear_0_76" x1="21.0758" y1="14.1946" x2="13.6384" y2="27.2129" gradientUnits="userSpaceOnUse">
<stop stop-color="#C7F284"/>
<stop offset="1" stop-color="#00BEF0"/>
</linearGradient>
<linearGradient id="paint5_linear_0_76" x1="21.076" y1="14.1951" x2="13.6387" y2="27.2133" gradientUnits="userSpaceOnUse">
<stop stop-color="#C7F284"/>
<stop offset="1" stop-color="#00BEF0"/>
</linearGradient>
<clipPath id="clip0_0_76">
<rect width="17" height="16.1905" fill="white" transform="translate(10 10.9048)"/>
</clipPath>
</defs>
</svg>
