<svg width="37" height="37" viewBox="0 0 37 37" fill="none" xmlns="http://www.w3.org/2000/svg">
<rect width="37" height="37" rx="8" fill="white"/>
<path fill-rule="evenodd" clip-rule="evenodd" d="M25.7769 11.43C26.024 11.326 26.2945 11.2901 26.5602 11.3261C26.8259 11.3621 27.0771 11.4686 27.2876 11.6347C27.4981 11.8007 27.6603 12.0201 27.7573 12.27C27.8542 12.52 27.8824 12.7914 27.8389 13.056L25.5709 26.813C25.3509 28.14 23.8949 28.901 22.6779 28.24C21.6599 27.687 20.1479 26.835 18.7879 25.946C18.1079 25.501 16.0249 24.076 16.2809 23.062C16.5009 22.195 20.0009 18.937 22.0009 17C22.7859 16.239 22.4279 15.8 21.5009 16.5C19.1989 18.238 15.5029 20.881 14.2809 21.625C13.2029 22.281 12.6409 22.393 11.9689 22.281C10.7429 22.077 9.6059 21.761 8.6779 21.376C7.4239 20.856 7.4849 19.132 8.6769 18.63L25.7769 11.43Z" fill="#121212"/>
</svg>
