<svg width="18" height="15" viewBox="0 0 18 15" fill="none" xmlns="http://www.w3.org/2000/svg">
<path d="M14.8605 7.5C14.8605 7.71217 14.7723 7.91566 14.6153 8.06569C14.4582 8.21571 14.2453 8.3 14.0233 8.3C13.8012 8.3 13.5883 8.21571 13.4313 8.06569C13.2743 7.91566 13.186 7.71217 13.186 7.5C13.186 7.28783 13.2743 7.08434 13.4313 6.93431C13.5883 6.78429 13.8012 6.7 14.0233 6.7C14.2453 6.7 14.4582 6.78429 14.6153 6.93431C14.7723 7.08434 14.8605 7.28783 14.8605 7.5Z" fill="white"/>
<path fill-rule="evenodd" clip-rule="evenodd" d="M7.2787 0.5H9.88409C11.4229 0.5 12.6419 0.5 13.5954 0.6224C14.5767 0.7488 15.3712 1.0144 15.9982 1.6128C16.7718 2.3528 17.0188 3.3432 17.1084 4.6288C17.5914 4.8312 17.9565 5.2608 17.9958 5.8048C18 5.8536 18 5.9056 18 5.9536V9.0464C18 9.0944 18 9.1464 17.9967 9.1944C17.9565 9.7384 17.5914 10.1688 17.1084 10.372C17.0188 11.6568 16.7718 12.6472 15.9982 13.3872C15.3712 13.9856 14.5767 14.2512 13.5954 14.3776C12.641 14.5 11.4229 14.5 9.88409 14.5H7.2787C5.73991 14.5 4.52093 14.5 3.56735 14.3776C2.58614 14.2512 1.79163 13.9856 1.16456 13.3872C0.538326 12.788 0.260372 12.0288 0.128093 11.0912C0 10.1792 0 9.0152 0 7.5448V7.4552C0 5.9848 0 4.82 0.128093 3.9088C0.260372 2.9712 0.538326 2.212 1.16456 1.6128C1.79163 1.0144 2.58614 0.7488 3.56735 0.6224C4.52177 0.5 5.73991 0.5 7.2787 0.5ZM15.8383 10.5H14.2158C12.42 10.5 10.8829 9.1976 10.8829 7.5C10.8829 5.8024 12.42 4.5 14.215 4.5H15.8375C15.742 3.4272 15.5269 2.86 15.1091 2.4616C14.755 2.1232 14.2694 1.92 13.4272 1.812C12.5673 1.7016 11.4329 1.7 9.83637 1.7H7.32474C5.72819 1.7 4.5946 1.7016 3.73312 1.812C2.89172 1.92 2.40614 2.1232 2.052 2.4616C1.69786 2.8 1.48605 3.264 1.37302 4.068C1.25749 4.8904 1.25581 5.9736 1.25581 7.4992C1.25581 9.0248 1.25749 10.1088 1.37302 10.9312C1.48605 11.7352 1.6987 12.1992 2.05284 12.5376C2.40698 12.876 2.89256 13.0792 3.73479 13.1872C4.59544 13.2976 5.72902 13.2992 7.32558 13.2992H9.83721C11.4338 13.2992 12.5682 13.2976 13.4288 13.1872C14.2702 13.0792 14.7558 12.876 15.11 12.5376C15.5277 12.1392 15.7429 11.5728 15.8383 10.4992M3.34884 4.3C3.34884 4.14087 3.41499 3.98826 3.53275 3.87574C3.6505 3.76321 3.81021 3.7 3.97674 3.7H7.32558C7.49211 3.7 7.65182 3.76321 7.76958 3.87574C7.88733 3.98826 7.95349 4.14087 7.95349 4.3C7.95349 4.45913 7.88733 4.61174 7.76958 4.72426C7.65182 4.83679 7.49211 4.9 7.32558 4.9H3.97674C3.81021 4.9 3.6505 4.83679 3.53275 4.72426C3.41499 4.61174 3.34884 4.45913 3.34884 4.3ZM16.4713 5.7H14.2158C13.0236 5.7 12.1387 6.5472 12.1387 7.5C12.1387 8.4528 13.0236 9.3 14.215 9.3H16.4905C16.663 9.2896 16.7375 9.1784 16.7433 9.1112V5.8888C16.7375 5.8216 16.663 5.7104 16.4905 5.7008L16.4713 5.7Z" fill="white"/>
</svg>
