<svg width="174" height="149" viewBox="0 0 174 149" fill="none" xmlns="http://www.w3.org/2000/svg">
<g filter="url(#filter0_b_0_171)">
<mask id="path-1-inside-1_0_171" fill="white">
<path fill-rule="evenodd" clip-rule="evenodd" d="M0 148.649V55.1505L55.1505 0H173.387V104.79L129.528 148.649H0Z"/>
</mask>
<path fill-rule="evenodd" clip-rule="evenodd" d="M0 148.649V55.1505L55.1505 0H173.387V104.79L129.528 148.649H0Z" fill="white" fill-opacity="0.05"/>
<path d="M0 55.1505L-0.428684 54.7218L-0.60625 54.8994V55.1505H0ZM0 148.649H-0.60625V149.255H0V148.649ZM55.1505 0V-0.60625H54.8994L54.7218 -0.428684L55.1505 0ZM173.387 0H173.994V-0.60625H173.387V0ZM173.387 104.79L173.816 105.218L173.994 105.041V104.79H173.387ZM129.528 148.649V149.255H129.78L129.957 149.078L129.528 148.649ZM-0.60625 55.1505V148.649H0.60625V55.1505H-0.60625ZM54.7218 -0.428684L-0.428684 54.7218L0.428684 55.5792L55.5792 0.428684L54.7218 -0.428684ZM173.387 -0.60625H55.1505V0.60625H173.387V-0.60625ZM173.994 104.79V0H172.781V104.79H173.994ZM129.957 149.078L173.816 105.218L172.959 104.361L129.1 148.22L129.957 149.078ZM0 149.255H129.528V148.043H0V149.255Z" fill="url(#paint0_linear_0_171)" mask="url(#path-1-inside-1_0_171)"/>
</g>
<g filter="url(#filter1_b_0_171)">
<mask id="path-3-inside-2_0_171" fill="white">
<path fill-rule="evenodd" clip-rule="evenodd" d="M0 148.649V55.1505L55.1505 0H173.387V104.79L129.528 148.649H0Z"/>
</mask>
<path d="M0 55.1505L-0.428684 54.7218L-0.60625 54.8994V55.1505H0ZM0 148.649H-0.60625V149.255H0V148.649ZM55.1505 0V-0.60625H54.8994L54.7218 -0.428684L55.1505 0ZM173.387 0H173.994V-0.60625H173.387V0ZM173.387 104.79L173.816 105.218L173.994 105.041V104.79H173.387ZM129.528 148.649V149.255H129.78L129.957 149.078L129.528 148.649ZM-0.60625 55.1505V148.649H0.60625V55.1505H-0.60625ZM54.7218 -0.428684L-0.428684 54.7218L0.428684 55.5792L55.5792 0.428684L54.7218 -0.428684ZM173.387 -0.60625H55.1505V0.60625H173.387V-0.60625ZM173.994 104.79V0H172.781V104.79H173.994ZM129.957 149.078L173.816 105.218L172.959 104.361L129.1 148.22L129.957 149.078ZM0 149.255H129.528V148.043H0V149.255Z" fill="url(#paint1_linear_0_171)" mask="url(#path-3-inside-2_0_171)"/>
</g>
<defs>
<filter id="filter0_b_0_171" x="-1.73605" y="-1.73605" width="176.86" height="152.121" filterUnits="userSpaceOnUse" color-interpolation-filters="sRGB">
<feFlood flood-opacity="0" result="BackgroundImageFix"/>
<feGaussianBlur in="BackgroundImageFix" stdDeviation="0.868023"/>
<feComposite in2="SourceAlpha" operator="in" result="effect1_backgroundBlur_0_171"/>
<feBlend mode="normal" in="SourceGraphic" in2="effect1_backgroundBlur_0_171" result="shape"/>
</filter>
<filter id="filter1_b_0_171" x="-1.73605" y="-1.73605" width="176.86" height="152.121" filterUnits="userSpaceOnUse" color-interpolation-filters="sRGB">
<feFlood flood-opacity="0" result="BackgroundImageFix"/>
<feGaussianBlur in="BackgroundImageFix" stdDeviation="0.868023"/>
<feComposite in2="SourceAlpha" operator="in" result="effect1_backgroundBlur_0_171"/>
<feBlend mode="normal" in="SourceGraphic" in2="effect1_backgroundBlur_0_171" result="shape"/>
</filter>
<linearGradient id="paint0_linear_0_171" x1="-61.8466" y1="20.3985" x2="109.371" y2="-6.94416" gradientUnits="userSpaceOnUse">
<stop stop-color="#002B64"/>
<stop offset="0.325" stop-color="#004AAD"/>
<stop offset="0.685" stop-color="#E380FF"/>
<stop offset="1" stop-color="white"/>
</linearGradient>
<linearGradient id="paint1_linear_0_171" x1="-61.8466" y1="20.3985" x2="109.371" y2="-6.94416" gradientUnits="userSpaceOnUse">
<stop stop-color="#002B64"/>
<stop offset="0.325" stop-color="#004AAD"/>
<stop offset="0.685" stop-color="#E380FF"/>
<stop offset="1" stop-color="white"/>
</linearGradient>
</defs>
</svg>
